<svg width="40px" height="40px" viewBox="0 0 40 40" fill="none" xmlns="http://www.w3.org/2000/svg">
  <rect width="40px" height="40px" rx="20" fill="white" />
  <path
    d="M10 11.875C10 11.7092 10.0658 11.5503 10.1831 11.4331C10.3003 11.3158 10.4592 11.25 10.625 11.25H12.5C12.6394 11.25 12.7748 11.2967 12.8847 11.3825C12.9945 11.4684 13.0725 11.5885 13.1063 11.7237L13.6125 13.75H28.125C28.2168 13.7501 28.3074 13.7704 28.3904 13.8094C28.4735 13.8485 28.5469 13.9054 28.6055 13.976C28.6641 14.0466 28.7064 14.1293 28.7294 14.2181C28.7525 14.307 28.7556 14.3998 28.7388 14.49L26.8638 24.49C26.8369 24.6332 26.7609 24.7626 26.6489 24.8557C26.5368 24.9488 26.3957 24.9999 26.25 25H15C14.8543 24.9999 14.7132 24.9488 14.6011 24.8557C14.4891 24.7626 14.4131 24.6332 14.3863 24.49L12.5125 14.5088L12.0125 12.5H10.625C10.4592 12.5 10.3003 12.4342 10.1831 12.3169C10.0658 12.1997 10 12.0408 10 11.875ZM16.25 25C15.587 25 14.9511 25.2634 14.4822 25.7322C14.0134 26.2011 13.75 26.837 13.75 27.5C13.75 28.163 14.0134 28.7989 14.4822 29.2678C14.9511 29.7366 15.587 30 16.25 30C16.913 30 17.5489 29.7366 18.0178 29.2678C18.4866 28.7989 18.75 28.163 18.75 27.5C18.75 26.837 18.4866 26.2011 18.0178 25.7322C17.5489 25.2634 16.913 25 16.25 25ZM25 25C24.337 25 23.7011 25.2634 23.2322 25.7322C22.7634 26.2011 22.5 26.837 22.5 27.5C22.5 28.163 22.7634 28.7989 23.2322 29.2678C23.7011 29.7366 24.337 30 25 30C25.663 30 26.2989 29.7366 26.7678 29.2678C27.2366 28.7989 27.5 28.163 27.5 27.5C27.5 26.837 27.2366 26.2011 26.7678 25.7322C26.2989 25.2634 25.663 25 25 25ZM16.25 26.25C16.5815 26.25 16.8995 26.3817 17.1339 26.6161C17.3683 26.8505 17.5 27.1685 17.5 27.5C17.5 27.8315 17.3683 28.1495 17.1339 28.3839C16.8995 28.6183 16.5815 28.75 16.25 28.75C15.9185 28.75 15.6005 28.6183 15.3661 28.3839C15.1317 28.1495 15 27.8315 15 27.5C15 27.1685 15.1317 26.8505 15.3661 26.6161C15.6005 26.3817 15.9185 26.25 16.25 26.25ZM25 26.25C25.3315 26.25 25.6495 26.3817 25.8839 26.6161C26.1183 26.8505 26.25 27.1685 26.25 27.5C26.25 27.8315 26.1183 28.1495 25.8839 28.3839C25.6495 28.6183 25.3315 28.75 25 28.75C24.6685 28.75 24.3505 28.6183 24.1161 28.3839C23.8817 28.1495 23.75 27.8315 23.75 27.5C23.75 27.1685 23.8817 26.8505 24.1161 26.6161C24.3505 26.3817 24.6685 26.25 25 26.25V26.25Z"
    fill="#06B6D4" />
</svg>